<svg xmlns="http://www.w3.org/2000/svg" width="18" height="18" viewBox="0 0 18 18" fill="none"><rect x="2.6" y="2.8" width="12.8" height="12.4" rx="3.2" fill="#FFFDF1" stroke="#0F766E" stroke-width="1.4"/><path d="M6.4 6.4c0-.9.4-1.4 1.1-1.7v1.2c-.25.16-.37.38-.37.67 0 .2.1.45.3.77.23.36.35.71.35 1.05 0 .73-.43 1.28-1.28 1.66v-1.2c.3-.18.45-.42.45-.72 0-.2-.1-.46-.3-.8-.18-.28-.26-.6-.26-.95Zm4 0c0-.9.4-1.4 1.1-1.7v1.2c-.24.16-.36.38-.36.67 0 .2.1.45.29.77.24.36.36.71.36 1.05 0 .73-.43 1.28-1.29 1.66v-1.2c.3-.18.45-.42.45-.72 0-.2-.1-.46-.29-.8-.18-.28-.26-.6-.26-.95Z" fill="#0F766E"/></svg>
